<mxfile host="65bd71144e">
    <diagram id="LqdmTyrMARRoVk2-njNa" name="Page-1">
        <mxGraphModel dx="954" dy="592" grid="1" gridSize="10" guides="1" tooltips="1" connect="1" arrows="1" fold="1" page="1" pageScale="1" pageWidth="1100" pageHeight="850" background="none" math="1" shadow="0">
            <root>
                <mxCell id="0"/>
                <mxCell id="1" parent="0"/>
                <mxCell id="2" value="" style="shape=table;startSize=0;container=1;collapsible=0;childLayout=tableLayout;fillColor=#FFFFFF;gradientColor=none;fontColor=#000000;strokeColor=#000000;fontSize=20;" vertex="1" parent="1">
                    <mxGeometry x="260" y="270" width="480" height="50" as="geometry"/>
                </mxCell>
                <mxCell id="3" value="" style="shape=tableRow;horizontal=0;startSize=0;swimlaneHead=0;swimlaneBody=0;top=0;left=0;bottom=0;right=0;collapsible=0;dropTarget=0;fillColor=none;points=[[0,0.5],[1,0.5]];portConstraint=eastwest;fontColor=#000000;fontSize=20;" vertex="1" parent="2">
                    <mxGeometry width="480" height="50" as="geometry"/>
                </mxCell>
                <mxCell id="4" value="A" style="shape=partialRectangle;html=1;whiteSpace=wrap;connectable=0;overflow=hidden;fillColor=none;top=0;left=0;bottom=0;right=0;pointerEvents=1;fontColor=#000000;fontSize=20;" vertex="1" parent="3">
                    <mxGeometry width="60" height="50" as="geometry">
                        <mxRectangle width="60" height="50" as="alternateBounds"/>
                    </mxGeometry>
                </mxCell>
                <mxCell id="5" value="B" style="shape=partialRectangle;html=1;whiteSpace=wrap;connectable=0;overflow=hidden;fillColor=none;top=0;left=0;bottom=0;right=0;pointerEvents=1;fontColor=#000000;fontSize=20;" vertex="1" parent="3">
                    <mxGeometry x="60" width="60" height="50" as="geometry">
                        <mxRectangle width="60" height="50" as="alternateBounds"/>
                    </mxGeometry>
                </mxCell>
                <mxCell id="6" value="C" style="shape=partialRectangle;html=1;whiteSpace=wrap;connectable=0;overflow=hidden;fillColor=none;top=0;left=0;bottom=0;right=0;pointerEvents=1;fontColor=#000000;fontSize=20;strokeWidth=1;" vertex="1" parent="3">
                    <mxGeometry x="120" width="60" height="50" as="geometry">
                        <mxRectangle width="60" height="50" as="alternateBounds"/>
                    </mxGeometry>
                </mxCell>
                <mxCell id="7" value="D" style="shape=partialRectangle;html=1;whiteSpace=wrap;connectable=0;overflow=hidden;fillColor=none;top=0;left=0;bottom=0;right=0;pointerEvents=1;fontColor=#000000;fontSize=20;" vertex="1" parent="3">
                    <mxGeometry x="180" width="60" height="50" as="geometry">
                        <mxRectangle width="60" height="50" as="alternateBounds"/>
                    </mxGeometry>
                </mxCell>
                <mxCell id="15" value="E" style="shape=partialRectangle;html=1;whiteSpace=wrap;connectable=0;overflow=hidden;fillColor=none;top=0;left=0;bottom=0;right=0;pointerEvents=1;fontColor=#000000;fontSize=20;" vertex="1" parent="3">
                    <mxGeometry x="240" width="60" height="50" as="geometry">
                        <mxRectangle width="60" height="50" as="alternateBounds"/>
                    </mxGeometry>
                </mxCell>
                <mxCell id="14" value="F" style="shape=partialRectangle;html=1;whiteSpace=wrap;connectable=0;overflow=hidden;fillColor=none;top=0;left=0;bottom=0;right=0;pointerEvents=1;fontColor=#000000;fontSize=20;" vertex="1" parent="3">
                    <mxGeometry x="300" width="60" height="50" as="geometry">
                        <mxRectangle width="60" height="50" as="alternateBounds"/>
                    </mxGeometry>
                </mxCell>
                <mxCell id="13" value="C" style="shape=partialRectangle;html=1;whiteSpace=wrap;connectable=0;overflow=hidden;fillColor=none;top=0;left=0;bottom=0;right=0;pointerEvents=1;fontColor=#000000;fontSize=20;" vertex="1" parent="3">
                    <mxGeometry x="360" width="60" height="50" as="geometry">
                        <mxRectangle width="60" height="50" as="alternateBounds"/>
                    </mxGeometry>
                </mxCell>
                <mxCell id="12" value="D" style="shape=partialRectangle;html=1;whiteSpace=wrap;connectable=0;overflow=hidden;fillColor=none;top=0;left=0;bottom=0;right=0;pointerEvents=1;fontColor=#000000;fontSize=20;" vertex="1" parent="3">
                    <mxGeometry x="420" width="60" height="50" as="geometry">
                        <mxRectangle width="60" height="50" as="alternateBounds"/>
                    </mxGeometry>
                </mxCell>
                <mxCell id="16" value="" style="shape=table;startSize=0;container=1;collapsible=0;childLayout=tableLayout;fillColor=#FFFFFF;gradientColor=none;fontColor=#000000;strokeColor=#000000;fontSize=20;" vertex="1" parent="1">
                    <mxGeometry x="260" y="440" width="120" height="50" as="geometry"/>
                </mxCell>
                <mxCell id="17" value="" style="shape=tableRow;horizontal=0;startSize=0;swimlaneHead=0;swimlaneBody=0;top=0;left=0;bottom=0;right=0;collapsible=0;dropTarget=0;fillColor=none;points=[[0,0.5],[1,0.5]];portConstraint=eastwest;fontColor=#000000;fontSize=20;" vertex="1" parent="16">
                    <mxGeometry width="120" height="50" as="geometry"/>
                </mxCell>
                <mxCell id="18" value="A" style="shape=partialRectangle;html=1;whiteSpace=wrap;connectable=0;overflow=hidden;fillColor=none;top=0;left=0;bottom=0;right=0;pointerEvents=1;fontColor=#000000;fontSize=20;" vertex="1" parent="17">
                    <mxGeometry width="60" height="50" as="geometry">
                        <mxRectangle width="60" height="50" as="alternateBounds"/>
                    </mxGeometry>
                </mxCell>
                <mxCell id="19" value="B" style="shape=partialRectangle;html=1;whiteSpace=wrap;connectable=0;overflow=hidden;fillColor=none;top=0;left=0;bottom=0;right=0;pointerEvents=1;fontColor=#000000;fontSize=20;" vertex="1" parent="17">
                    <mxGeometry x="60" width="60" height="50" as="geometry">
                        <mxRectangle width="60" height="50" as="alternateBounds"/>
                    </mxGeometry>
                </mxCell>
                <mxCell id="20" value="" style="shape=table;startSize=0;container=1;collapsible=0;childLayout=tableLayout;fillColor=#FFFFFF;gradientColor=none;fontColor=#000000;strokeColor=#000000;fontSize=20;" vertex="1" parent="1">
                    <mxGeometry x="400" y="440" width="120" height="50" as="geometry"/>
                </mxCell>
                <mxCell id="21" value="" style="shape=tableRow;horizontal=0;startSize=0;swimlaneHead=0;swimlaneBody=0;top=0;left=0;bottom=0;right=0;collapsible=0;dropTarget=0;fillColor=none;points=[[0,0.5],[1,0.5]];portConstraint=eastwest;fontColor=#000000;fontSize=20;" vertex="1" parent="20">
                    <mxGeometry width="120" height="50" as="geometry"/>
                </mxCell>
                <mxCell id="22" value="C" style="shape=partialRectangle;html=1;whiteSpace=wrap;connectable=0;overflow=hidden;fillColor=none;top=0;left=0;bottom=0;right=0;pointerEvents=1;fontColor=#000000;fontSize=20;" vertex="1" parent="21">
                    <mxGeometry width="60" height="50" as="geometry">
                        <mxRectangle width="60" height="50" as="alternateBounds"/>
                    </mxGeometry>
                </mxCell>
                <mxCell id="23" value="D" style="shape=partialRectangle;html=1;whiteSpace=wrap;connectable=0;overflow=hidden;fillColor=none;top=0;left=0;bottom=0;right=0;pointerEvents=1;fontColor=#000000;fontSize=20;" vertex="1" parent="21">
                    <mxGeometry x="60" width="60" height="50" as="geometry">
                        <mxRectangle width="60" height="50" as="alternateBounds"/>
                    </mxGeometry>
                </mxCell>
                <mxCell id="24" value="" style="shape=table;startSize=0;container=1;collapsible=0;childLayout=tableLayout;fillColor=#FFFFFF;gradientColor=none;fontColor=#000000;strokeColor=#000000;fontSize=20;" vertex="1" parent="1">
                    <mxGeometry x="540" y="440" width="120" height="50" as="geometry"/>
                </mxCell>
                <mxCell id="25" value="" style="shape=tableRow;horizontal=0;startSize=0;swimlaneHead=0;swimlaneBody=0;top=0;left=0;bottom=0;right=0;collapsible=0;dropTarget=0;fillColor=none;points=[[0,0.5],[1,0.5]];portConstraint=eastwest;fontColor=#000000;fontSize=20;" vertex="1" parent="24">
                    <mxGeometry width="120" height="50" as="geometry"/>
                </mxCell>
                <mxCell id="26" value="E" style="shape=partialRectangle;html=1;whiteSpace=wrap;connectable=0;overflow=hidden;fillColor=none;top=0;left=0;bottom=0;right=0;pointerEvents=1;fontColor=#000000;fontSize=20;" vertex="1" parent="25">
                    <mxGeometry width="60" height="50" as="geometry">
                        <mxRectangle width="60" height="50" as="alternateBounds"/>
                    </mxGeometry>
                </mxCell>
                <mxCell id="27" value="F" style="shape=partialRectangle;html=1;whiteSpace=wrap;connectable=0;overflow=hidden;fillColor=none;top=0;left=0;bottom=0;right=0;pointerEvents=1;fontColor=#000000;fontSize=20;" vertex="1" parent="25">
                    <mxGeometry x="60" width="60" height="50" as="geometry">
                        <mxRectangle width="60" height="50" as="alternateBounds"/>
                    </mxGeometry>
                </mxCell>
                <mxCell id="28" value="" style="shape=table;startSize=0;container=1;collapsible=0;childLayout=tableLayout;fillColor=#FFFFFF;gradientColor=none;fontColor=#000000;strokeColor=#000000;fontSize=20;" vertex="1" parent="1">
                    <mxGeometry x="680" y="440" width="120" height="50" as="geometry"/>
                </mxCell>
                <mxCell id="29" value="" style="shape=tableRow;horizontal=0;startSize=0;swimlaneHead=0;swimlaneBody=0;top=0;left=0;bottom=0;right=0;collapsible=0;dropTarget=0;fillColor=none;points=[[0,0.5],[1,0.5]];portConstraint=eastwest;fontColor=#000000;fontSize=20;" vertex="1" parent="28">
                    <mxGeometry width="120" height="50" as="geometry"/>
                </mxCell>
                <mxCell id="30" value="C" style="shape=partialRectangle;html=1;whiteSpace=wrap;connectable=0;overflow=hidden;fillColor=none;top=0;left=0;bottom=0;right=0;pointerEvents=1;fontColor=#000000;fontSize=20;" vertex="1" parent="29">
                    <mxGeometry width="60" height="50" as="geometry">
                        <mxRectangle width="60" height="50" as="alternateBounds"/>
                    </mxGeometry>
                </mxCell>
                <mxCell id="31" value="D" style="shape=partialRectangle;html=1;whiteSpace=wrap;connectable=0;overflow=hidden;fillColor=none;top=0;left=0;bottom=0;right=0;pointerEvents=1;fontColor=#000000;fontSize=20;" vertex="1" parent="29">
                    <mxGeometry x="60" width="60" height="50" as="geometry">
                        <mxRectangle width="60" height="50" as="alternateBounds"/>
                    </mxGeometry>
                </mxCell>
                <mxCell id="40" value="\(B_{init-2}:\)" style="text;html=1;strokeColor=none;fillColor=none;align=center;verticalAlign=middle;whiteSpace=wrap;rounded=0;fillStyle=cross-hatch;strokeWidth=4;fontSize=25;fontColor=#FFFFFF;" vertex="1" parent="1">
                    <mxGeometry x="90" y="280" width="60" height="30" as="geometry"/>
                </mxCell>
                <mxCell id="41" value="\(B_{init}:\)" style="text;html=1;strokeColor=none;fillColor=none;align=center;verticalAlign=middle;whiteSpace=wrap;rounded=0;fillStyle=cross-hatch;strokeWidth=4;fontSize=25;fontColor=#FFFFFF;" vertex="1" parent="1">
                    <mxGeometry x="80" y="450" width="60" height="30" as="geometry"/>
                </mxCell>
                <mxCell id="42" value="" style="shape=ellipse;fillColor=#0065FF;strokeColor=none;html=1;sketch=0;fontSize=20;fontColor=#000000;" vertex="1" parent="1">
                    <mxGeometry x="190" y="290" width="10" height="10" as="geometry"/>
                </mxCell>
                <mxCell id="43" value="" style="shape=ellipse;fillColor=#0065FF;strokeColor=none;html=1;sketch=0;fontSize=20;fontColor=#000000;" vertex="1" parent="1">
                    <mxGeometry x="210" y="290" width="10" height="10" as="geometry"/>
                </mxCell>
                <mxCell id="44" value="" style="shape=ellipse;fillColor=#0065FF;strokeColor=none;html=1;sketch=0;fontSize=20;fontColor=#000000;" vertex="1" parent="1">
                    <mxGeometry x="230" y="290" width="10" height="10" as="geometry"/>
                </mxCell>
                <mxCell id="48" value="" style="shape=ellipse;fillColor=#0065FF;strokeColor=none;html=1;sketch=0;fontSize=20;fontColor=#000000;" vertex="1" parent="1">
                    <mxGeometry x="760" y="290" width="10" height="10" as="geometry"/>
                </mxCell>
                <mxCell id="49" value="" style="shape=ellipse;fillColor=#0065FF;strokeColor=none;html=1;sketch=0;fontSize=20;fontColor=#000000;" vertex="1" parent="1">
                    <mxGeometry x="780" y="290" width="10" height="10" as="geometry"/>
                </mxCell>
                <mxCell id="50" value="" style="shape=ellipse;fillColor=#0065FF;strokeColor=none;html=1;sketch=0;fontSize=20;fontColor=#000000;" vertex="1" parent="1">
                    <mxGeometry x="800" y="290" width="10" height="10" as="geometry"/>
                </mxCell>
                <mxCell id="51" value="" style="shape=ellipse;fillColor=#0065FF;strokeColor=none;html=1;sketch=0;fontSize=20;fontColor=#000000;" vertex="1" parent="1">
                    <mxGeometry x="190" y="460" width="10" height="10" as="geometry"/>
                </mxCell>
                <mxCell id="52" value="" style="shape=ellipse;fillColor=#0065FF;strokeColor=none;html=1;sketch=0;fontSize=20;fontColor=#000000;" vertex="1" parent="1">
                    <mxGeometry x="210" y="460" width="10" height="10" as="geometry"/>
                </mxCell>
                <mxCell id="53" value="" style="shape=ellipse;fillColor=#0065FF;strokeColor=none;html=1;sketch=0;fontSize=20;fontColor=#000000;" vertex="1" parent="1">
                    <mxGeometry x="230" y="460" width="10" height="10" as="geometry"/>
                </mxCell>
                <mxCell id="54" value="" style="shape=ellipse;fillColor=#0065FF;strokeColor=none;html=1;sketch=0;fontSize=20;fontColor=#000000;" vertex="1" parent="1">
                    <mxGeometry x="820" y="460" width="10" height="10" as="geometry"/>
                </mxCell>
                <mxCell id="55" value="" style="shape=ellipse;fillColor=#0065FF;strokeColor=none;html=1;sketch=0;fontSize=20;fontColor=#000000;" vertex="1" parent="1">
                    <mxGeometry x="840" y="460" width="10" height="10" as="geometry"/>
                </mxCell>
                <mxCell id="56" value="" style="shape=ellipse;fillColor=#0065FF;strokeColor=none;html=1;sketch=0;fontSize=20;fontColor=#000000;" vertex="1" parent="1">
                    <mxGeometry x="860" y="460" width="10" height="10" as="geometry"/>
                </mxCell>
            </root>
        </mxGraphModel>
    </diagram>
</mxfile>